<?xml version="1.0" encoding="UTF-8"?>
<svg id="Layer_1" data-name="Layer 1" xmlns="http://www.w3.org/2000/svg" viewBox="0 0 160 160">
  <defs>
    <style>
      .cls-1 {
        fill: gray;
      }

      .cls-2 {
        fill: #e6e6e6;
      }

      .cls-3 {
        fill: #4d4d4d;
      }
    </style>
  </defs>
  <g>
    <path class="cls-3" d="M60.6,130c-3.85,0-7.24-2.03-9.06-5.42l-21.36-39.7c-1.64-3.05-1.64-6.7,0-9.75l21.36-39.7c1.82-3.39,5.21-5.42,9.06-5.42s7.24,2.02,9.06,5.42l21.36,39.7c1.64,3.05,1.64,6.7,0,9.75l-21.36,39.7c-1.82,3.39-5.21,5.42-9.06,5.42Z"/>
    <path d="M60.6,32.51c2.92,0,5.48,1.53,6.86,4.1l21.36,39.7c1.24,2.31,1.24,5.07,0,7.38l-21.36,39.7c-1.38,2.57-3.95,4.1-6.86,4.1s-5.48-1.53-6.86-4.1l-21.36-39.7c-1.24-2.31-1.24-5.07,0-7.38l21.36-39.7c1.38-2.57,3.95-4.1,6.86-4.1M60.6,27.51c-4.43,0-8.85,2.24-11.27,6.73l-21.36,39.7c-2.04,3.78-2.04,8.34,0,12.12l21.36,39.7c2.41,4.49,6.84,6.73,11.27,6.73s8.85-2.24,11.27-6.73l21.36-39.7c2.04-3.78,2.04-8.34,0-12.12l-21.36-39.7c-2.41-4.49-6.84-6.73-11.27-6.73h0Z"/>
  </g>
  <g>
    <path class="cls-1" d="M79.8,130c-3.85,0-7.24-2.03-9.06-5.42l-21.36-39.7c-1.64-3.05-1.64-6.7,0-9.75l21.36-39.7c1.82-3.39,5.21-5.42,9.06-5.42s7.24,2.02,9.06,5.42l21.36,39.7c1.64,3.05,1.64,6.7,0,9.75l-21.36,39.7c-1.82,3.39-5.21,5.42-9.06,5.42Z"/>
    <path d="M79.8,32.51c2.92,0,5.48,1.53,6.86,4.1l21.36,39.7c1.24,2.31,1.24,5.07,0,7.38l-21.36,39.7c-1.38,2.57-3.95,4.1-6.86,4.1s-5.48-1.53-6.86-4.1l-21.36-39.7c-1.24-2.31-1.24-5.07,0-7.38l21.36-39.7c1.38-2.57,3.95-4.1,6.86-4.1M79.8,27.51c-4.43,0-8.85,2.24-11.27,6.73l-21.36,39.7c-2.04,3.78-2.04,8.34,0,12.12l21.36,39.7c2.41,4.49,6.84,6.73,11.27,6.73s8.85-2.24,11.27-6.73l21.36-39.7c2.04-3.78,2.04-8.34,0-12.12l-21.36-39.7c-2.41-4.49-6.84-6.73-11.27-6.73h0Z"/>
  </g>
  <g>
    <path class="cls-2" d="M100.02,130c-3.85,0-7.24-2.03-9.07-5.42l-21.36-39.7c-1.64-3.05-1.64-6.7,0-9.75l21.36-39.7c1.83-3.39,5.21-5.42,9.07-5.42s7.24,2.02,9.06,5.42l20.18,37.52c2.38,4.42,2.38,9.7,0,14.12l-20.18,37.52c-1.83,3.39-5.21,5.42-9.06,5.42Z"/>
    <path d="M100.02,32.51c2.92,0,5.48,1.53,6.86,4.1l20.18,37.52c1.98,3.68,1.98,8.07,0,11.75l-20.18,37.52c-1.38,2.57-3.95,4.1-6.86,4.1s-5.48-1.53-6.86-4.1l-21.36-39.7c-1.24-2.31-1.24-5.07,0-7.38l21.36-39.7c1.38-2.57,3.95-4.1,6.86-4.1M100.02,27.51c-4.43,0-8.85,2.24-11.27,6.73l-21.36,39.7c-2.04,3.78-2.04,8.34,0,12.12l21.36,39.7c2.41,4.49,6.84,6.73,11.27,6.73s8.85-2.24,11.27-6.73l20.18-37.52c2.77-5.15,2.77-11.34,0-16.49l-20.18-37.52c-2.41-4.49-6.84-6.73-11.27-6.73h0Z"/>
  </g>
</svg>